<svg width="64" height="64" viewBox="0 0 64 64" fill="none" xmlns="http://www.w3.org/2000/svg">
<rect x="0.5" y="0.5" width="63" height="63" rx="17.5" fill="white" stroke="white"/>
<path fill-rule="evenodd" clip-rule="evenodd" d="M39.8591 30.6243C39.8276 27.0152 42.73 25.2594 42.8627 25.1777C41.2189 22.7108 38.6712 22.3737 37.7759 22.3469C35.6361 22.1151 33.5604 23.6649 32.4704 23.6649C31.3586 23.6649 29.6801 22.3693 27.871 22.4073C25.543 22.4443 23.3651 23.8317 22.1706 25.9862C19.7056 30.3791 21.544 36.8346 23.9058 40.3855C25.0872 42.1256 26.4677 44.0662 28.2746 43.9979C30.0423 43.924 30.7027 42.8378 32.8359 42.8378C34.9496 42.8378 35.5697 43.9979 37.4125 43.9531C39.3097 43.924 40.5042 42.2073 41.6443 40.4515C43.0095 38.4606 43.5578 36.4953 43.5796 36.3945C43.5361 36.38 39.8961 34.95 39.8591 30.6243Z" fill="#203152"/>
<path fill-rule="evenodd" clip-rule="evenodd" d="M36.7593 20.3882C37.678 19.2152 38.3066 17.6194 38.1322 16C36.8024 16.0601 35.1395 16.939 34.1819 18.0862C33.3346 19.0972 32.5778 20.7542 32.7733 22.3124C34.267 22.4262 35.8007 21.5429 36.7593 20.3882Z" fill="#203152"/>
</svg>
