<svg width="64" height="64" viewBox="0 0 64 64" fill="none" xmlns="http://www.w3.org/2000/svg">
<rect x="0.5" y="0.5" width="63" height="63" rx="17.5" fill="white" stroke="white"/>
<path fill-rule="evenodd" clip-rule="evenodd" d="M46.7528 33.1502C46.2861 33.4233 44.0671 34.6832 41.1876 36.313C34.5129 40.0925 24.3335 45.8366 24.3335 45.8366C23.9572 46.0035 23.537 46.0437 23.1359 45.9511C22.5938 45.787 22.1682 45.3646 22 44.8234V19.3715C22.161 18.8407 22.5207 18.3925 23.0038 18.1205C23.5174 17.9176 24.0969 17.9733 24.5625 18.2702C25.9009 18.9574 35.2085 24.1729 41.3461 27.6616C44.2608 29.3179 46.4622 30.5777 46.744 30.7892C47.089 31.0836 47.2884 31.514 47.2901 31.9677C47.2918 32.4214 47.0956 32.8532 46.7528 33.1502Z" fill="#203152"/>
<path fill-rule="evenodd" clip-rule="evenodd" d="M46.7503 32.9372C46.2906 33.2065 44.0539 34.4574 41.1629 36.0644L36.9103 31.8861L22.9062 18.1179C23.4257 17.917 24.0119 17.9753 24.4799 18.2743C25.8149 18.9431 35.1687 24.0856 41.3308 27.5255C44.2572 29.1585 46.4586 30.4094 46.7415 30.6092C47.0898 30.8984 47.2914 31.3232 47.2931 31.7712C47.2948 32.2192 47.0964 32.6455 46.7503 32.9372Z" fill="white" fill-opacity="0.3"/>
<path fill-rule="evenodd" clip-rule="evenodd" d="M46.7502 31.0559C46.2903 30.7864 44.0527 29.543 41.1606 27.9346L36.9066 32.1166L22.9062 45.88C23.422 46.0803 24.0042 46.0254 24.4717 45.7322C25.816 45.054 35.1643 39.9156 41.3287 36.4725C44.2561 34.838 46.4583 33.5947 46.7413 33.386C47.0897 33.0965 47.2914 32.6714 47.2931 32.223C47.2948 31.7745 47.0964 31.3479 46.7502 31.0559Z" fill="white" fill-opacity="0.3"/>
</svg>
